<svg id="schedule_2_" data-name="schedule (2)" xmlns="http://www.w3.org/2000/svg" width="35.079" height="35.079" viewBox="0 0 35.079 35.079">
  <path id="Path_5458" data-name="Path 5458" d="M362.028,0A1.018,1.018,0,0,0,361,1.028V2.055h2.055V1.028A1.018,1.018,0,0,0,362.028,0Z" transform="translate(-336.267)" fill="#0d3a8f"/>
  <path id="Path_5459" data-name="Path 5459" d="M122.028,0A1.018,1.018,0,0,0,121,1.028V2.055h2.055V1.028A1.018,1.018,0,0,0,122.028,0Z" transform="translate(-112.71)" fill="#0d3a8f"/>
  <path id="Path_5460" data-name="Path 5460" d="M151,30h14.388v4.179H151Z" transform="translate(-140.654 -27.945)" fill="#0d3a8f"/>
  <path id="Path_5461" data-name="Path 5461" d="M0,33.083v1.1H8.29V30H3.083A3.079,3.079,0,0,0,0,33.083Z" transform="translate(0 -27.945)" fill="#0d3a8f"/>
  <path id="Path_5462" data-name="Path 5462" d="M396.207,30H391v4.179h8.29v-1.1A3.079,3.079,0,0,0,396.207,30Z" transform="translate(-364.211 -27.945)" fill="#0d3a8f"/>
  <path id="Path_5463" data-name="Path 5463" d="M0,146.761a1.018,1.018,0,0,0,1.028,1.028H34.051a1.018,1.018,0,0,0,1.028-1.028V121H0Zm9.794-20.643,2.32-2.32a1.028,1.028,0,0,1,1.453,0l3.633,3.634a1.027,1.027,0,0,1,0,1.453l-1.907,1.906a22.183,22.183,0,0,0,2.634,3.18A22.488,22.488,0,0,0,21.1,136.61l1.913-1.911a1.027,1.027,0,0,1,1.453,0l3.633,3.633a1.027,1.027,0,0,1,0,1.453l-2.32,2.32a5.173,5.173,0,0,1-6.2.822,28.544,28.544,0,0,1-10.608-10.61,5.173,5.173,0,0,1,.821-6.2Z" transform="translate(0 -112.71)" fill="#0670f4"/>
  <path id="Path_5464" data-name="Path 5464" d="M155.748,204.558a26.122,26.122,0,0,0,5.576,4.261,3.111,3.111,0,0,0,3.731-.488l1.594-1.594-2.18-2.18-1.778,1.776a1.03,1.03,0,0,1-1.275.142,24.289,24.289,0,0,1-7.581-7.594,1.027,1.027,0,0,1,.143-1.275l1.77-1.77-2.18-2.181-1.594,1.594a3.118,3.118,0,0,0-.488,3.731A26.505,26.505,0,0,0,155.748,204.558Z" transform="translate(-140.728 -180.389)" fill="#0d3a8f"/>
</svg>
