<svg id="customer_1_" data-name="customer (1)" xmlns="http://www.w3.org/2000/svg" width="43.061" height="43.066" viewBox="0 0 43.061 43.066">
  <g id="Group_10396" data-name="Group 10396" transform="translate(17.664)">
    <g id="Group_10395" data-name="Group 10395">
      <path id="Path_5424" data-name="Path 5424" d="M215.16,0a5.2,5.2,0,0,0-5.131,5.131,5.2,5.2,0,0,0,5.131,5.131A5.132,5.132,0,0,0,215.16,0Z" transform="translate(-210.029)" fill="#113c8c"/>
    </g>
  </g>
  <g id="Group_10398" data-name="Group 10398" transform="translate(15.141 10.262)">
    <g id="Group_10397" data-name="Group 10397">
      <path id="Path_5425" data-name="Path 5425" d="M193.284,122a7.524,7.524,0,0,1-5.6,2.523A7.708,7.708,0,0,1,182,122a7.512,7.512,0,0,0-1.969,5.047v1.262a1.261,1.261,0,0,0,1.262,1.262h12.7a1.261,1.261,0,0,0,1.262-1.262v-1.262A7.512,7.512,0,0,0,193.284,122Z" transform="translate(-180.029 -122)" fill="#113c8c"/>
    </g>
  </g>
  <g id="Group_10400" data-name="Group 10400" transform="translate(0 24.437)">
    <g id="Group_10399" data-name="Group 10399">
      <path id="Path_5426" data-name="Path 5426" d="M12.214,304.82l-6.43-12.891a2.523,2.523,0,0,0-3.378-1.135l-1.68.832a1.263,1.263,0,0,0-.568,1.7l7.57,15.14a1.263,1.263,0,0,0,1.689.567l1.659-.822A2.523,2.523,0,0,0,12.214,304.82Z" transform="translate(-0.024 -290.532)" fill="#0670f4"/>
    </g>
  </g>
  <g id="Group_10402" data-name="Group 10402" transform="translate(7.485 19.891)">
    <g id="Group_10401" data-name="Group 10401">
      <path id="Path_5427" data-name="Path 5427" d="M123.562,237.422a2.515,2.515,0,0,0-3.331.328l-6.9,8.478a3.05,3.05,0,0,1-1.867.807h-5.88a1.262,1.262,0,0,1,0-2.523h5.047a2.523,2.523,0,1,0,0-5.047h-6.611c-.629,0-.942-.4-1.438-.833a8.779,8.779,0,0,0-7.832-1.917,9.2,9.2,0,0,0-3.874,1.934l-.037-.03-1.825,1.606,7.172,14.381h14.446a7.6,7.6,0,0,0,6.056-3.028l7.4-10.6A2.543,2.543,0,0,0,123.562,237.422Z" transform="translate(-89.016 -236.479)" fill="#0670f4"/>
    </g>
  </g>
</svg>
