<svg id="Group_10569" data-name="Group 10569" xmlns="http://www.w3.org/2000/svg" width="85.876" height="85.876" viewBox="0 0 85.876 85.876">
  <circle id="Ellipse_192" data-name="Ellipse 192" cx="42.938" cy="42.938" r="42.938" transform="translate(0)" fill="#fff"/>
  <g id="deployment_1_" data-name="deployment (1)" transform="translate(24.37 19.728)">
    <path id="Path_5416" data-name="Path 5416" d="M362,16.89h8.1l-8.1-8.1Z" transform="translate(-333.731 -7.984)" fill="#0670f4"/>
    <path id="Path_5417" data-name="Path 5417" d="M78.029,11.646V0H52.5V41.285h5.063A10.658,10.658,0,0,1,61.25,31a48.21,48.21,0,0,1-.432-6.43,14.367,14.367,0,0,1,9.836-13.647l.433-.144.433.144a14.367,14.367,0,0,1,9.836,13.647A48.209,48.209,0,0,1,80.925,31a10.658,10.658,0,0,1,3.688,10.282h5.063V11.646ZM62.091,13.7H57.98v-2.74h4.11ZM66.2,8.22H57.98V5.48H66.2Z" transform="translate(-52.5)" fill="#113c8c"/>
    <path id="Path_5418" data-name="Path 5418" d="M137.853,377.628q-.242-.968-.443-1.946a7.884,7.884,0,0,0-1.354,7.272l.383,1.231,2.715-1.351Z" transform="translate(-128.097 -341.368)" fill="#0670f4"/>
    <path id="Path_5419" data-name="Path 5419" d="M341.531,382.954a7.884,7.884,0,0,0-1.354-7.272q-.2.977-.443,1.946l-1.3,5.206,2.715,1.351Z" transform="translate(-312.316 -341.368)" fill="#0670f4"/>
    <path id="Path_5420" data-name="Path 5420" d="M206.044,477.044h9.126v3.193h-9.126Z" transform="translate(-192.02 -433.472)" fill="#0670f4"/>
    <path id="Path_5421" data-name="Path 5421" d="M187.475,293.68a45.492,45.492,0,0,0,1.336-9.653h-3.4a4.335,4.335,0,0,1-8.227,0h-3.4a45.5,45.5,0,0,0,1.336,9.653l1.309,5.237h9.727Z" transform="translate(-162.715 -258.084)" fill="#0670f4"/>
    <path id="Path_5422" data-name="Path 5422" d="M177.781,159.282a4.335,4.335,0,0,1,8.227,0h3.335a11.628,11.628,0,0,0-7.449-9.524,11.628,11.628,0,0,0-7.449,9.524Z" transform="translate(-163.308 -136.079)" fill="#0670f4"/>
    <path id="Path_5423" data-name="Path 5423" d="M241.715,253.145a1.6,1.6,0,1,0-1.6,1.6A1.6,1.6,0,0,0,241.715,253.145Z" transform="translate(-221.531 -228.572)" fill="#0670f4"/>
  </g>
</svg>
