<svg id="Group_10567" data-name="Group 10567" xmlns="http://www.w3.org/2000/svg" width="85.876" height="85.876" viewBox="0 0 85.876 85.876">
  <circle id="Ellipse_192" data-name="Ellipse 192" cx="42.938" cy="42.938" r="42.938" transform="translate(0)" fill="#fff"/>
  <g id="coding_2_" data-name="coding (2)" transform="translate(20.86 21.572)">
    <path id="Path_5402" data-name="Path 5402" d="M137.2,441.312h-3.191V438.25H118.485v3.062h-3.191a1.294,1.294,0,1,0,0,2.587H137.2a1.294,1.294,0,1,0,0-2.587Z" transform="translate(-104.168 -401.166)" fill="#113c8c"/>
    <path id="Path_5403" data-name="Path 5403" d="M0,350.837a2.59,2.59,0,0,0,2.587,2.587H41.569a2.59,2.59,0,0,0,2.587-2.587V348.25H0Z" transform="translate(0 -318.928)" fill="#113c8c"/>
    <path id="Path_5404" data-name="Path 5404" d="M41.569,8.25H2.587A2.59,2.59,0,0,0,0,10.837V34.985H44.156V10.837A2.59,2.59,0,0,0,41.569,8.25ZM30.7,19.893a1.294,1.294,0,0,1-1.294,1.294H15.092a1.294,1.294,0,0,1,0-2.587H29.41A1.294,1.294,0,0,1,30.7,19.893ZM11.643,13.425h5.433a1.294,1.294,0,1,1,0,2.587H11.643a1.294,1.294,0,0,1,0-2.587ZM6.468,31.535a1.294,1.294,0,1,1,1.294-1.294A1.3,1.3,0,0,1,6.468,31.535Zm0-5.175a1.294,1.294,0,1,1,1.294-1.294A1.3,1.3,0,0,1,6.468,26.361Zm0-5.175a1.294,1.294,0,1,1,1.294-1.294A1.3,1.3,0,0,1,6.468,21.186Zm0-5.175a1.294,1.294,0,1,1,1.294-1.294A1.3,1.3,0,0,1,6.468,16.012ZM17.076,31.535H11.643a1.294,1.294,0,0,1,0-2.587h5.433a1.294,1.294,0,0,1,0,2.587Zm4.053-5.175H15.092a1.294,1.294,0,0,1,0-2.587h6.037a1.294,1.294,0,1,1,0,2.587Zm8.926,0h-4.47a1.294,1.294,0,1,1,0-2.587h4.47a1.294,1.294,0,1,1,0,2.587Zm7.632,0h-3.1a1.294,1.294,0,1,1,0-2.587h3.1a1.294,1.294,0,1,1,0,2.587Zm0-5.175h-3.1a1.294,1.294,0,1,1,0-2.587h3.1a1.294,1.294,0,0,1,0,2.587Z" transform="translate(0 -8.25)" fill="#0670f4"/>
  </g>
</svg>
