<svg id="Group_10571" data-name="Group 10571" xmlns="http://www.w3.org/2000/svg" width="85.876" height="85.876" viewBox="0 0 85.876 85.876">
  <circle id="Ellipse_192" data-name="Ellipse 192" cx="42.938" cy="42.938" r="42.938" transform="translate(0 0)" fill="#fff"/>
  <g id="headphones_1_" data-name="headphones (1)" transform="translate(19.728 16.827)">
    <g id="Group_10409" data-name="Group 10409" transform="translate(6.169 21.591)">
      <g id="Group_10408" data-name="Group 10408">
        <path id="Path_5432" data-name="Path 5432" d="M95.627,210A4.632,4.632,0,0,0,91,214.627V227.17a4.627,4.627,0,1,0,9.253,0V214.627A4.632,4.632,0,0,0,95.627,210Z" transform="translate(-91 -210)" fill="#113c8c"/>
      </g>
    </g>
    <g id="Group_10411" data-name="Group 10411" transform="translate(0 24.919)">
      <g id="Group_10410" data-name="Group 10410">
        <path id="Path_5433" data-name="Path 5433" d="M34.084,243.665a7.651,7.651,0,0,1,.131-1.3A4.617,4.617,0,0,0,31,246.749v6.374a4.617,4.617,0,0,0,3.216,4.383,7.652,7.652,0,0,1-.131-1.3Z" transform="translate(-31 -242.366)" fill="#0670f4"/>
      </g>
    </g>
    <g id="Group_10413" data-name="Group 10413" transform="translate(18.506 21.591)">
      <g id="Group_10412" data-name="Group 10412">
        <path id="Path_5434" data-name="Path 5434" d="M227.964,210a4.632,4.632,0,0,0-4.627,4.627V227.17a4.632,4.632,0,0,0,4.627,4.627,4.563,4.563,0,0,0,1.325-.217,4.617,4.617,0,0,1-4.41,3.3h-4.911a4.627,4.627,0,1,0,0,3.084h4.911a7.72,7.72,0,0,0,7.711-7.711V214.627A4.632,4.632,0,0,0,227.964,210Z" transform="translate(-211 -210)" fill="#113c8c"/>
      </g>
    </g>
    <g id="Group_10415" data-name="Group 10415" transform="translate(43.05 24.919)">
      <g id="Group_10414" data-name="Group 10414">
        <path id="Path_5435" data-name="Path 5435" d="M449.722,242.366a7.651,7.651,0,0,1,.131,1.3v12.543a7.651,7.651,0,0,1-.131,1.3,4.617,4.617,0,0,0,3.216-4.383v-6.374A4.617,4.617,0,0,0,449.722,242.366Z" transform="translate(-449.722 -242.366)" fill="#0670f4"/>
      </g>
    </g>
    <g id="Group_10417" data-name="Group 10417" transform="translate(0)">
      <g id="Group_10416" data-name="Group 10416">
        <path id="Path_5436" data-name="Path 5436" d="M54.133,0A23.158,23.158,0,0,0,31,23.133v.039a7.637,7.637,0,0,1,3.155-1.433,20.025,20.025,0,0,1,39.956,0,7.639,7.639,0,0,1,3.155,1.433v-.039A23.158,23.158,0,0,0,54.133,0Z" transform="translate(-31)" fill="#0670f4"/>
      </g>
    </g>
  </g>
</svg>
