<svg id="Group_10568" data-name="Group 10568" xmlns="http://www.w3.org/2000/svg" width="85.876" height="85.876" viewBox="0 0 85.876 85.876">
  <circle id="Ellipse_192" data-name="Ellipse 192" cx="42.938" cy="42.938" r="42.938" transform="translate(0)" fill="#fff"/>
  <g id="quality_4_" data-name="quality (4)" transform="translate(20.57 20.57)">
    <path id="Path_5405" data-name="Path 5405" d="M42.859,13.18l-4.567-2.733-1.029-4.26a3.924,3.924,0,0,0-4.125-3l-5.226.4L24.918.944a3.918,3.918,0,0,0-5.1,0L16.825,3.594,11.6,3.19A3.9,3.9,0,0,0,7.521,6.032l-1.512,4.7L1.878,13.178A3.915,3.915,0,0,0,.3,18.029L2.084,22.35.3,26.67a3.912,3.912,0,0,0,1.576,4.85l4.563,2.713,1.033,4.279a3.924,3.924,0,0,0,4.125,3l5.17-.4,3.05,2.682a3.913,3.913,0,0,0,5.1,0l3.05-2.682,5.17.4a3.9,3.9,0,0,0,4.125-3l1.029-4.26,4.567-2.733a3.916,3.916,0,0,0,1.576-4.85l-1.783-4.32,1.784-4.322a3.914,3.914,0,0,0-1.577-4.848ZM22.368,36.786A14.417,14.417,0,1,1,36.785,22.368,14.434,14.434,0,0,1,22.368,36.786Z" transform="translate(0 0)" fill="#113c8c"/>
    <path id="Path_5406" data-name="Path 5406" d="M132.8,121a11.8,11.8,0,1,0,11.8,11.8A11.809,11.809,0,0,0,132.8,121Zm7.48,8.791-7.864,7.864a1.31,1.31,0,0,1-1.853,0l-5.243-5.243a1.311,1.311,0,0,1,1.853-1.853l4.316,4.316,6.937-6.937a1.31,1.31,0,1,1,1.853,1.853Z" transform="translate(-110.427 -110.427)" fill="#0670f4"/>
  </g>
</svg>
