<svg id="Group_10572" data-name="Group 10572" xmlns="http://www.w3.org/2000/svg" width="85.876" height="85.876" viewBox="0 0 85.876 85.876">
  <circle id="Ellipse_192" data-name="Ellipse 192" cx="42.938" cy="42.938" r="42.938" transform="translate(0)" fill="#fff"/>
  <g id="vector_1_" data-name="vector (1)" transform="translate(18.666 18.666)">
    <g id="Group_10452" data-name="Group 10452">
      <g id="Group_10451" data-name="Group 10451">
        <path id="Path_5447" data-name="Path 5447" d="M47.121,0H41.338a1.421,1.421,0,0,0-1.422,1.422V2.844H28.276a4.241,4.241,0,0,0-8.009,0H8.628V1.422A1.421,1.421,0,0,0,7.206,0H1.422A1.421,1.421,0,0,0,0,1.422V7.111A1.421,1.421,0,0,0,1.422,8.533H7.206A1.421,1.421,0,0,0,8.628,7.111V5.67h5.841A18.553,18.553,0,0,0,5.89,20.234a4.254,4.254,0,1,0,2.839.064A15.606,15.606,0,0,1,20.5,6.21a4.231,4.231,0,0,0,7.552,0A15.606,15.606,0,0,1,39.815,20.3a4.279,4.279,0,1,0,2.839-.064A18.518,18.518,0,0,0,34.075,5.689h5.841V7.111a1.421,1.421,0,0,0,1.422,1.422h5.783a1.421,1.421,0,0,0,1.422-1.422V1.422A1.421,1.421,0,0,0,47.121,0Z" fill="#113c8c"/>
      </g>
    </g>
    <g id="Group_10454" data-name="Group 10454" transform="translate(14.534 42.76)">
      <g id="Group_10453" data-name="Group 10453">
        <path id="Path_5448" data-name="Path 5448" d="M172.707,455.019A5.784,5.784,0,0,0,167.3,451h-8.533a5.784,5.784,0,0,0-5.409,4.02,1.4,1.4,0,0,0,1.383,1.764h16.584A1.4,1.4,0,0,0,172.707,455.019Z" transform="translate(-153.294 -451)" fill="#0670f4"/>
      </g>
    </g>
    <g id="Group_10456" data-name="Group 10456" transform="translate(11.472 12.464)">
      <g id="Group_10455" data-name="Group 10455">
        <path id="Path_5449" data-name="Path 5449" d="M146.36,148.167l-11.138-16.708v13.492a4.267,4.267,0,1,1-2.844,0V131.459l-11.138,16.708a1.422,1.422,0,0,0,.178,1.794,17.958,17.958,0,0,1,4.924,9.582,8.468,8.468,0,0,1,3.193-.632h8.533a8.471,8.471,0,0,1,3.193.632,17.957,17.957,0,0,1,4.924-9.582A1.422,1.422,0,0,0,146.36,148.167Z" transform="translate(-121 -131.459)" fill="#0670f4"/>
      </g>
    </g>
    <g id="Group_10458" data-name="Group 10458" transform="translate(22.85 28.538)">
      <g id="Group_10457" data-name="Group 10457">
        <path id="Path_5450" data-name="Path 5450" d="M242.422,301a1.422,1.422,0,1,0,1.422,1.422A1.423,1.423,0,0,0,242.422,301Z" transform="translate(-241 -301)" fill="#0670f4"/>
      </g>
    </g>
  </g>
</svg>
