<svg xmlns="http://www.w3.org/2000/svg" width="87.35" height="87.318" viewBox="0 0 87.35 87.318">
  <g id="settings" transform="translate(0 -0.093)">
    <path id="Path_5621" data-name="Path 5621" d="M153.888,132.562V122.326a2.559,2.559,0,0,0-2.242-2.539l-4.391-.549,2.717-3.493a2.559,2.559,0,0,0-.211-3.381l-7.238-7.238a2.559,2.559,0,0,0-3.381-.211l-3.493,2.717-.549-4.39A2.559,2.559,0,0,0,132.562,101H122.326a2.559,2.559,0,0,0-2.539,2.242l-.549,4.39-3.493-2.717a2.559,2.559,0,0,0-3.381.211l-7.238,7.238a2.559,2.559,0,0,0-.211,3.381l2.717,3.493-4.391.549A2.559,2.559,0,0,0,101,122.326v10.236a2.559,2.559,0,0,0,2.242,2.539l4.391.549-2.717,3.493a2.559,2.559,0,0,0,.21,3.381l7.238,7.238a2.559,2.559,0,0,0,3.381.211l3.493-2.717.549,4.39a2.559,2.559,0,0,0,2.539,2.242h10.236a2.559,2.559,0,0,0,2.539-2.242l.549-4.39,3.493,2.717a2.559,2.559,0,0,0,3.381-.211l7.238-7.238a2.559,2.559,0,0,0,.21-3.381l-2.717-3.493,4.391-.549A2.559,2.559,0,0,0,153.888,132.562Zm-26.444,3.412a8.53,8.53,0,1,1,8.53-8.53A8.54,8.54,0,0,1,127.444,135.974Z" transform="translate(-83.769 -83.692)" fill="#0670f4"/>
    <path id="Path_5622" data-name="Path 5622" d="M139.892,119.865a2.558,2.558,0,0,0-4.405,2.6A38.55,38.55,0,0,1,78.67,172.518l5.952-1.323a2.558,2.558,0,0,0-1.11-4.994l-10.853,2.412a2.558,2.558,0,0,0-2,2.5v10.853a2.558,2.558,0,1,0,5.116,0v-5.217a43.668,43.668,0,0,0,64.12-56.881Z" transform="translate(-58.601 -98.295)" fill="#113c8c"/>
    <path id="Path_5623" data-name="Path 5623" d="M16.421,16.5a38.6,38.6,0,0,1,50.86-3.217L61.33,14.6A2.558,2.558,0,1,0,62.44,19.6l10.853-2.412a2.558,2.558,0,0,0,2-2.5V3.836a2.558,2.558,0,1,0-5.116,0V9.053A43.668,43.668,0,0,0,6.06,65.935a2.558,2.558,0,1,0,4.405-2.6A38.519,38.519,0,0,1,16.421,16.5Z" fill="#113c8c"/>
  </g>
</svg>
